mtllib pumpjack.mtl
o pumpjack_connector
usemtl pumpjack
v -0.625000 -0.062500 -0.062500
v -0.750000 -0.062500 -0.062500
v -0.750000 1.437500 -0.062500
v -0.625000 1.437500 -0.062500
v -0.750000 -0.062500 0.062500
v -0.625000 -0.062500 0.062500
v -0.625000 1.437500 0.062500
v -0.750000 1.437500 0.062500
v -0.625000 -0.062500 -0.062500
v -0.625000 -0.062500 0.062500
v -0.750000 -0.062500 0.062500
v -0.750000 -0.062500 -0.062500
v -0.750000 1.437500 -0.062500
v -0.750000 1.437500 0.062500
v -0.625000 1.437500 0.062500
v -0.625000 1.437500 -0.062500
v -0.750000 -0.062500 -0.062500
v -0.750000 -0.062500 0.062500
v -0.750000 1.437500 0.062500
v -0.750000 1.437500 -0.062500
v -0.625000 -0.062500 0.062500
v -0.625000 -0.062500 -0.062500
v -0.625000 1.437500 -0.062500
v -0.625000 1.437500 0.062500
v 0.500000 -0.062500 -0.062500
v 0.375000 -0.062500 -0.062500
v 0.375000 1.437500 -0.062500
v 0.500000 1.437500 -0.062500
v 0.375000 -0.062500 0.062500
v 0.500000 -0.062500 0.062500
v 0.500000 1.437500 0.062500
v 0.375000 1.437500 0.062500
v 0.500000 -0.062500 -0.062500
v 0.500000 -0.062500 0.062500
v 0.375000 -0.062500 0.062500
v 0.375000 -0.062500 -0.062500
v 0.375000 1.437500 -0.062500
v 0.375000 1.437500 0.062500
v 0.500000 1.437500 0.062500
v 0.500000 1.437500 -0.062500
v 0.375000 -0.062500 -0.062500
v 0.375000 -0.062500 0.062500
v 0.375000 1.437500 0.062500
v 0.375000 1.437500 -0.062500
v 0.500000 -0.062500 0.062500
v 0.500000 -0.062500 -0.062500
v 0.500000 1.437500 -0.062500
v 0.500000 1.437500 0.062500
vt 0.386719 0.886719
vt 0.382812 0.886719
vt 0.382812 0.839844
vt 0.386719 0.839844
vt 0.378906 0.886719
vt 0.375000 0.886719
vt 0.375000 0.839844
vt 0.378906 0.839844
vt 0.382812 0.890625
vt 0.378906 0.890625
vt 0.378906 0.886719
vt 0.382812 0.886719
vt 0.386719 0.886719
vt 0.382812 0.886719
vt 0.382812 0.890625
vt 0.386719 0.890625
vt 0.382812 0.886719
vt 0.378906 0.886719
vt 0.378906 0.839844
vt 0.382812 0.839844
vt 0.390625 0.886719
vt 0.386719 0.886719
vt 0.386719 0.839844
vt 0.390625 0.839844
vt 0.386719 0.886719
vt 0.382812 0.886719
vt 0.382812 0.839844
vt 0.386719 0.839844
vt 0.378906 0.886719
vt 0.375000 0.886719
vt 0.375000 0.839844
vt 0.378906 0.839844
vt 0.382812 0.890625
vt 0.378906 0.890625
vt 0.378906 0.886719
vt 0.382812 0.886719
vt 0.386719 0.886719
vt 0.382812 0.886719
vt 0.382812 0.890625
vt 0.386719 0.890625
vt 0.382812 0.886719
vt 0.378906 0.886719
vt 0.378906 0.839844
vt 0.382812 0.839844
vt 0.390625 0.886719
vt 0.386719 0.886719
vt 0.386719 0.839844
vt 0.390625 0.839844
vn 0.000000 0.000000 -1.000000
vn 0.000000 0.000000 1.000000
vn 0.000000 -1.000000 -0.000000
vn 0.000000 1.000000 -0.000000
vn -1.000000 0.000000 -0.000000
vn 1.000000 0.000000 -0.000000
vn 0.000000 0.000000 -1.000000
vn 0.000000 0.000000 1.000000
vn 0.000000 -1.000000 -0.000000
vn 0.000000 1.000000 -0.000000
vn -1.000000 0.000000 -0.000000
vn 1.000000 0.000000 -0.000000
f 1/1/1 2/2/1 3/3/1 4/4/1
f 5/5/2 6/6/2 7/7/2 8/8/2
f 9/9/3 10/10/3 11/11/3 12/12/3
f 13/13/4 14/14/4 15/15/4 16/16/4
f 17/17/5 18/18/5 19/19/5 20/20/5
f 21/21/6 22/22/6 23/23/6 24/24/6
f 25/25/7 26/26/7 27/27/7 28/28/7
f 29/29/8 30/30/8 31/31/8 32/32/8
f 33/33/9 34/34/9 35/35/9 36/36/9
f 37/37/10 38/38/10 39/39/10 40/40/10
f 41/41/11 42/42/11 43/43/11 44/44/11
f 45/45/12 46/46/12 47/47/12 48/48/12
