mtllib pumpjack.mtl
o pumpjack_well_long
usemtl pumpjack
v 0.062500 0.000000 -0.062500
v -0.062500 0.000000 -0.062500
v -0.062500 1.875000 -0.062500
v 0.062500 1.875000 -0.062500
v -0.062500 0.000000 0.062500
v 0.062500 0.000000 0.062500
v 0.062500 1.875000 0.062500
v -0.062500 1.875000 0.062500
v 0.062500 0.000000 -0.062500
v 0.062500 0.000000 0.062500
v -0.062500 0.000000 0.062500
v -0.062500 0.000000 -0.062500
v -0.062500 1.875000 -0.062500
v -0.062500 1.875000 0.062500
v 0.062500 1.875000 0.062500
v 0.062500 1.875000 -0.062500
v -0.062500 0.000000 -0.062500
v -0.062500 0.000000 0.062500
v -0.062500 1.875000 0.062500
v -0.062500 1.875000 -0.062500
v 0.062500 0.000000 0.062500
v 0.062500 0.000000 -0.062500
v 0.062500 1.875000 -0.062500
v 0.062500 1.875000 0.062500
vt 0.511719 0.867188
vt 0.507812 0.867188
vt 0.507812 0.808594
vt 0.511719 0.808594
vt 0.503906 0.867188
vt 0.500000 0.867188
vt 0.500000 0.808594
vt 0.503906 0.808594
vt 0.507812 0.871094
vt 0.503906 0.871094
vt 0.503906 0.867188
vt 0.507812 0.867188
vt 0.511719 0.867188
vt 0.507812 0.867188
vt 0.507812 0.871094
vt 0.511719 0.871094
vt 0.507812 0.867188
vt 0.503906 0.867188
vt 0.503906 0.808594
vt 0.507812 0.808594
vt 0.515625 0.867188
vt 0.511719 0.867188
vt 0.511719 0.808594
vt 0.515625 0.808594
vn 0.000000 0.000000 -1.000000
vn 0.000000 0.000000 1.000000
vn 0.000000 -1.000000 -0.000000
vn 0.000000 1.000000 -0.000000
vn -1.000000 0.000000 -0.000000
vn 1.000000 0.000000 -0.000000
f 1/1/1 2/2/1 3/3/1 4/4/1
f 5/5/2 6/6/2 7/7/2 8/8/2
f 9/9/3 10/10/3 11/11/3 12/12/3
f 13/13/4 14/14/4 15/15/4 16/16/4
f 17/17/5 18/18/5 19/19/5 20/20/5
f 21/21/6 22/22/6 23/23/6 24/24/6
